<svg xmlns="http://www.w3.org/2000/svg" viewBox="0 0 18 12" width="16" height="16" aria-hidden="true"><path d="M17.276 2.052a.87.87 0 0 0-.802-.109l-3.431 1.216v-.85A2.29 2.29 0 0 0 10.758.023H2.636A2.29 2.29 0 0 0 .351 2.31V9.69a2.29 2.29 0 0 0 2.285 2.286h8.122a2.29 2.29 0 0 0 2.285-2.286v-.83l3.431 1.22a.884.884 0 0 0 1.174-.83V2.774a.88.88 0 0 0-.373-.721m-5.991 7.64a.527.527 0 0 1-.527.527H2.636a.527.527 0 0 1-.527-.528V2.31c0-.292.236-.528.527-.528h8.122c.291 0 .527.236.527.528zm4.605-1.685-2.798-.994a.3.3 0 0 0-.05-.015V5.023c.018-.004.032-.01.05-.014l2.798-.995z"></path></svg>